<?xml version="1.0" encoding="UTF-8" standalone="no"?>
<!-- Created with Inkscape (http://www.inkscape.org/) -->

<svg
   xmlns:dc="http://purl.org/dc/elements/1.1/"
   xmlns:cc="http://creativecommons.org/ns#"
   xmlns:rdf="http://www.w3.org/1999/02/22-rdf-syntax-ns#"
   xmlns:svg="http://www.w3.org/2000/svg"
   xmlns="http://www.w3.org/2000/svg"
   xmlns:sodipodi="http://sodipodi.sourceforge.net/DTD/sodipodi-0.dtd"
   xmlns:inkscape="http://www.inkscape.org/namespaces/inkscape"
   width="210mm"
   height="297mm"
   viewBox="0 0 210 297"
   version="1.1"
   id="svg32722"
   inkscape:version="0.92.3 (2405546, 2018-03-11)"
   sodipodi:docname="progress.svg"
   inkscape:export-filename="/run/media/FedUser/Stuffffff/Programming/Web/Freelancer/Jingle Wells/assets/progress.png"
   inkscape:export-xdpi="300"
   inkscape:export-ydpi="300">
  <defs
     id="defs32716" />
  <sodipodi:namedview
     id="base"
     pagecolor="#ffffff"
     bordercolor="#666666"
     borderopacity="1.0"
     inkscape:pageopacity="0.0"
     inkscape:pageshadow="2"
     inkscape:zoom="1.4"
     inkscape:cx="150.6277"
     inkscape:cy="9.5287051"
     inkscape:document-units="mm"
     inkscape:current-layer="layer1"
     showgrid="false"
     inkscape:window-width="1366"
     inkscape:window-height="703"
     inkscape:window-x="0"
     inkscape:window-y="0"
     inkscape:window-maximized="1" />
  <metadata
     id="metadata32719">
    <rdf:RDF>
      <cc:Work
         rdf:about="">
        <dc:format>image/svg+xml</dc:format>
        <dc:type
           rdf:resource="http://purl.org/dc/dcmitype/StillImage" />
        <dc:title></dc:title>
      </cc:Work>
    </rdf:RDF>
  </metadata>
  <g
     inkscape:label="Layer 1"
     inkscape:groupmode="layer"
     id="layer1">
    <g
       id="g33283"
       transform="translate(-87.116207,36.66801)">
      <path
         inkscape:connector-curvature="0"
         id="path7324"
         style="fill:#ffffff;fill-opacity:1;fill-rule:evenodd;stroke:none;stroke-width:0.35277775"
         d="m 88.139261,258.56801 c -0.105833,-0.28222 -0.211666,-0.52917 -0.352778,-0.74083 -0.105833,-0.17639 -0.282222,-0.42334 -0.529166,-0.635 -0.03528,-0.0353 -0.07056,-0.0353 -0.07056,0 -0.03528,0 -0.07055,0.0353 -0.07055,0.0705 0,0.35278 0.03528,0.635 0.07055,0.88195 0.03528,0.24694 0.141111,0.52916 0.211667,0.77611 0.105833,0.24694 0.211667,0.49389 0.352778,0.74083 0.105833,0.17639 0.282222,0.42334 0.529166,0.635 0,0.0353 0.03528,0.0353 0.03528,0.0353 0,0 0.03528,0 0.03528,0 0.03528,-0.0353 0.03528,-0.0706 0.03528,-0.0706 0.03528,-0.38805 0,-0.67027 -0.03528,-0.91722 -0.07056,-0.28222 -0.141111,-0.52916 -0.211667,-0.77611 z" />
      <path
         inkscape:connector-curvature="0"
         id="path7326"
         style="fill:#ffffff;fill-opacity:1;fill-rule:evenodd;stroke:none;stroke-width:0.35277775"
         d="m 89.762039,257.26273 c 0,-0.0353 0,-0.0705 -0.03528,-0.0705 -0.03528,-0.0353 -0.07056,-0.0353 -0.07056,0 -0.246944,0.21166 -0.423333,0.45861 -0.529166,0.635 -0.141111,0.21166 -0.246945,0.45861 -0.3175,0.74083 -0.105833,0.24695 -0.211667,0.49389 -0.246945,0.77611 -0.03528,0.24695 -0.07055,0.52917 -0.03528,0.91722 0,0 0,0.0353 0.03528,0.0706 0,0 0,0 0.03528,0 0,0 0.03528,0 0.03528,-0.0353 0.246943,-0.21166 0.423332,-0.45861 0.529166,-0.635 0.141111,-0.24694 0.246944,-0.49389 0.352777,-0.74083 0.07056,-0.24695 0.141112,-0.52917 0.211667,-0.77611 0.03528,-0.24695 0.07056,-0.52917 0.03528,-0.88195 z" />
      <path
         inkscape:connector-curvature="0"
         id="path7376"
         style="fill:#00b9e1;fill-opacity:1;fill-rule:evenodd;stroke:none;stroke-width:0.35277775"
         d="m 88.139261,256.45134 c -0.105833,-0.28222 -0.211666,-0.52916 -0.352778,-0.74083 -0.105833,-0.17639 -0.282222,-0.42333 -0.529166,-0.635 -0.03528,-0.0353 -0.07056,-0.0353 -0.07056,0 -0.03528,0 -0.07055,0.0353 -0.07055,0.0706 0,0.35277 0.03528,0.635 0.07055,0.88194 0.03528,0.28222 0.141111,0.52917 0.211667,0.81139 0.105833,0.24694 0.211667,0.49389 0.352778,0.70556 0.105833,0.17638 0.282222,0.42333 0.529166,0.635 0,0.0353 0.03528,0.0353 0.03528,0.0353 0,0 0.03528,0 0.03528,0 0.03528,-0.0353 0.03528,-0.0706 0.03528,-0.10583 0.03528,-0.3175 0,-0.635 -0.03528,-0.88194 -0.07056,-0.24695 -0.141111,-0.52917 -0.211667,-0.77612 z" />
      <path
         inkscape:connector-curvature="0"
         id="path7378"
         style="fill:#00b9e1;fill-opacity:1;fill-rule:evenodd;stroke:none;stroke-width:0.35277775"
         d="m 89.762039,255.14607 c 0,-0.0353 0,-0.0706 -0.03528,-0.0706 -0.03528,-0.0353 -0.07056,-0.0353 -0.07056,0 -0.246944,0.21167 -0.423333,0.45861 -0.529166,0.635 -0.141111,0.21167 -0.246945,0.45861 -0.3175,0.74083 -0.105833,0.24695 -0.211667,0.52917 -0.246945,0.77612 -0.03528,0.24694 -0.07055,0.56444 -0.03528,0.88194 0,0.0353 0,0.0706 0.03528,0.10583 0,0 0,0 0.03528,0 0,0 0.03528,0 0.03528,-0.0353 0.246943,-0.21166 0.423332,-0.42333 0.529166,-0.63499 0.141111,-0.21167 0.246944,-0.45862 0.352777,-0.70556 0.07056,-0.28222 0.141112,-0.52917 0.211667,-0.81139 0.03528,-0.24694 0.07056,-0.52917 0.03528,-0.88194 z" />
    </g>
  </g>
</svg>
