<?xml version="1.0" encoding="UTF-8" standalone="no"?>
<!-- Generator: Adobe Illustrator 19.0.0, SVG Export Plug-In . SVG Version: 6.00 Build 0)  -->

<svg
   xmlns:dc="http://purl.org/dc/elements/1.1/"
   xmlns:cc="http://creativecommons.org/ns#"
   xmlns:rdf="http://www.w3.org/1999/02/22-rdf-syntax-ns#"
   xmlns:svg="http://www.w3.org/2000/svg"
   xmlns="http://www.w3.org/2000/svg"
   xmlns:sodipodi="http://sodipodi.sourceforge.net/DTD/sodipodi-0.dtd"
   xmlns:inkscape="http://www.inkscape.org/namespaces/inkscape"
   version="1.1"
   id="Layer_1"
   inkscape:version="0.92.3 (2405546, 2018-03-11)"
   sodipodi:docname="logo.svg"
   inkscape:export-filename="C:\Users\User\Desktop\path1364.png"
   inkscape:export-xdpi="9.407649"
   inkscape:export-ydpi="9.407649"
   sodipodi:role="line"
   x="0px"
   y="0px"
   viewBox="385.9 364.9 300 65"
   style="enable-background:new 385.9 364.9 300 65;"
   xml:space="preserve"><metadata
   id="metadata57"><rdf:RDF><cc:Work
       rdf:about=""><dc:format>image/svg+xml</dc:format><dc:type
         rdf:resource="http://purl.org/dc/dcmitype/StillImage" /></cc:Work></rdf:RDF></metadata><defs
   id="defs55" /><sodipodi:namedview
   pagecolor="#ffffff"
   bordercolor="#666666"
   borderopacity="1"
   objecttolerance="10"
   gridtolerance="10"
   guidetolerance="10"
   inkscape:pageopacity="0"
   inkscape:pageshadow="2"
   inkscape:window-width="1366"
   inkscape:window-height="703"
   id="namedview53"
   showgrid="false"
   inkscape:zoom="1.1733333"
   inkscape:cx="46.022727"
   inkscape:cy="32.5"
   inkscape:window-x="0"
   inkscape:window-y="0"
   inkscape:window-maximized="1"
   inkscape:current-layer="Layer_1" />
<style
   type="text/css"
   id="style2">
	.st0{fill:none;}
	.st1{enable-background:new    ;}
	.st2{fill:#0078D7;}
	.st3{fill:#018FFF;}
	.st4{fill:#ED5151;}
	.st5{fill:#FED55E;}
	.st6{fill:#FEBD01;}
	.st7{fill:#DF1818;}
</style>
<rect
   x="385.9"
   y="364.9"
   class="st0"
   width="300"
   height="65"
   id="rect4" />
<g
   id="g50"
   transform="translate(-28.1)">
	<g
   id="g22">
		<path
   d="m 509.9,406.6 c 0,0.3 0,0.4 -0.1,0.5 -0.1,0.1 -0.3,0.1 -0.5,0.1 h -2.9 c -0.2,0 -0.4,0 -0.5,-0.1 -0.1,-0.1 -0.2,-0.2 -0.2,-0.5 v -17.3 c 0,-0.5 0.1,-0.9 0.3,-1.2 0.2,-0.3 0.7,-0.5 1.3,-0.5 h 6.9 c 1,0 1.9,0.2 2.7,0.5 0.8,0.3 1.5,0.7 2.1,1.3 0.6,0.5 1,1.2 1.3,1.9 0.3,0.7 0.4,1.6 0.4,2.5 0,0.5 -0.1,1.1 -0.2,1.8 -0.1,0.7 -0.5,1.4 -1,2.1 -0.5,0.7 -1.2,1.3 -2.2,1.8 -0.9,0.5 -2.2,0.7 -3.8,0.7 h -3.7 v 6.4 z m 6.5,-12.7 c 0,-0.3 0,-0.5 -0.1,-0.9 -0.1,-0.3 -0.2,-0.6 -0.4,-0.9 -0.2,-0.3 -0.5,-0.5 -0.9,-0.7 -0.4,-0.2 -0.8,-0.3 -1.4,-0.3 H 510 v 5.3 h 3.7 c 1,0 1.7,-0.3 2.1,-0.8 0.3,-0.3 0.6,-0.9 0.6,-1.7 z"
   id="path6"
   inkscape:connector-curvature="0" />
		<path
   d="m 525.4,407.2 c -0.7,0 -1.1,-0.1 -1.3,-0.4 -0.2,-0.3 -0.3,-0.7 -0.3,-1.3 v -16.2 c 0,-0.6 0.1,-1 0.3,-1.3 0.2,-0.3 0.7,-0.4 1.3,-0.4 h 5.2 c 1.6,0 3,0.3 4.2,0.8 1.1,0.5 2.1,1.2 2.8,2.1 0.7,0.9 1.2,1.9 1.5,3.1 0.3,1.2 0.5,2.4 0.5,3.7 0,1.3 -0.1,2.5 -0.4,3.7 -0.3,1.2 -0.8,2.3 -1.4,3.2 -0.7,0.9 -1.6,1.6 -2.7,2.2 -1.1,0.6 -2.5,0.8 -4.1,0.8 z m 9.8,-9.9 c 0,-0.9 -0.1,-1.7 -0.2,-2.4 -0.1,-0.7 -0.4,-1.4 -0.8,-1.9 -0.4,-0.5 -0.9,-1 -1.6,-1.3 -0.7,-0.3 -1.5,-0.5 -2.5,-0.5 h -2.2 v 12.2 h 2.3 c 1,0 1.8,-0.2 2.4,-0.5 0.6,-0.3 1.2,-0.7 1.5,-1.3 0.4,-0.5 0.6,-1.2 0.8,-1.9 0.2,-0.7 0.3,-1.6 0.3,-2.4 z"
   id="path8"
   inkscape:connector-curvature="0" />
		<path
   d="m 547.3,407.1 c -0.1,0.1 -0.3,0.1 -0.5,0.1 h -3 c -0.2,0 -0.4,0 -0.5,-0.1 -0.1,-0.1 -0.2,-0.2 -0.2,-0.5 v -13.9 c 0,-0.7 0.1,-1.3 0.3,-1.9 0.2,-0.6 0.5,-1.2 0.9,-1.7 0.4,-0.5 0.9,-0.9 1.6,-1.2 0.7,-0.3 1.5,-0.4 2.4,-0.4 h 8.2 c 0.2,0 0.4,0 0.5,0.1 0.1,0.1 0.1,0.3 0.1,0.5 v 2.4 c 0,0.2 0,0.4 -0.1,0.5 -0.1,0.1 -0.2,0.1 -0.4,0.1 h -7.3 c -0.7,0 -1.2,0.2 -1.5,0.5 -0.2,0.3 -0.4,0.7 -0.4,1.2 v 2.6 h 8 c 0.2,0 0.4,0 0.4,0.1 0.1,0.1 0.1,0.3 0.1,0.5 v 2.2 c 0,0.2 0,0.4 -0.1,0.5 -0.1,0.1 -0.2,0.2 -0.4,0.2 h -8 v 7.6 c 0.1,0.3 0,0.5 -0.1,0.6 z"
   id="path10"
   inkscape:connector-curvature="0" />
		<path
   d="m 559.7,406.8 c -0.2,-0.3 -0.4,-0.7 -0.4,-1.3 0,-0.7 0.2,-1.4 0.6,-2.2 0.4,-0.8 1,-1.7 1.9,-2.6 0.7,-0.7 1.4,-1.3 2.2,-1.9 0.8,-0.6 1.5,-1.1 2.1,-1.5 0.6,-0.4 1.2,-0.8 1.6,-1.1 0.4,-0.3 0.8,-0.7 1.1,-1 0.3,-0.3 0.5,-0.7 0.6,-1 0.1,-0.3 0.2,-0.7 0.2,-1.2 0,-0.5 -0.1,-0.9 -0.3,-1.3 -0.2,-0.4 -0.5,-0.7 -0.9,-0.9 -0.4,-0.3 -0.8,-0.4 -1.3,-0.6 -0.5,-0.1 -1.1,-0.2 -1.7,-0.2 -0.7,0 -1.5,0.1 -2.3,0.4 -0.8,0.2 -1.5,0.6 -2.1,1.1 -0.2,0.2 -0.4,0.2 -0.5,0 l -0.7,-1 c -0.1,-0.2 -0.1,-0.4 0.1,-0.5 0.8,-0.6 1.7,-1.1 2.7,-1.4 1,-0.3 2,-0.5 3,-0.5 0.9,0 1.7,0.1 2.4,0.3 0.8,0.2 1.4,0.5 2,0.9 0.6,0.4 1,0.9 1.3,1.5 0.3,0.6 0.5,1.3 0.5,2.1 0,1.3 -0.4,2.4 -1.2,3.3 -0.8,0.9 -1.9,1.8 -3.4,2.7 -0.5,0.3 -1.1,0.7 -1.7,1.1 -0.6,0.4 -1.2,0.9 -1.7,1.5 -0.5,0.6 -1,1.1 -1.4,1.8 -0.4,0.6 -0.7,1.3 -0.8,2 h 9.9 c 0.1,0 0.2,0 0.3,0.1 0,0.1 0.1,0.2 0.1,0.3 v 1.1 c 0,0.2 0,0.3 -0.1,0.3 0,0.1 -0.1,0.1 -0.3,0.1 H 561 c -0.6,0 -1.1,-0.2 -1.3,-0.4 z"
   id="path12"
   inkscape:connector-curvature="0" />
		<path
   d="m 586.6,393.1 -1.2,5.2 -1.7,7.4 c -0.1,0.7 -0.4,1.1 -0.6,1.3 -0.3,0.2 -0.7,0.3 -1.2,0.3 h -1.6 c -0.3,0 -0.5,0 -0.7,0 -0.2,0 -0.4,-0.1 -0.5,-0.2 -0.2,-0.1 -0.3,-0.2 -0.4,-0.4 -0.1,-0.2 -0.2,-0.5 -0.3,-0.8 l -4,-17.7 c -0.1,-0.3 0,-0.4 0,-0.5 0.1,-0.1 0.2,-0.1 0.4,-0.1 h 3.4 c 0.3,0 0.5,0 0.6,0.1 0.1,0.1 0.2,0.2 0.3,0.5 l 1.4,8.1 0.8,5 h 0.2 l 1.1,-5.1 1.5,-7.1 c 0.1,-0.6 0.3,-1 0.6,-1.2 0.2,-0.2 0.7,-0.4 1.3,-0.4 h 1.6 c 0.6,0 0.9,0.1 1.1,0.4 0.2,0.2 0.4,0.6 0.5,1.1 l 1.6,7.4 1,4.8 h 0.2 l 0.8,-4.8 1.4,-8.2 c 0,-0.3 0.1,-0.5 0.2,-0.5 0.1,-0.1 0.3,-0.1 0.5,-0.1 h 3.6 c 0.2,0 0.3,0 0.4,0.1 0.1,0.1 0.1,0.2 0,0.5 l -4,17.6 c -0.1,0.4 -0.2,0.6 -0.3,0.8 -0.1,0.2 -0.2,0.3 -0.4,0.4 -0.2,0.1 -0.3,0.2 -0.5,0.2 -0.2,0 -0.4,0 -0.7,0 h -1.5 c -0.3,0 -0.5,0 -0.7,0 -0.2,0 -0.4,-0.1 -0.5,-0.2 -0.2,-0.1 -0.3,-0.3 -0.4,-0.5 -0.1,-0.2 -0.2,-0.5 -0.3,-0.8 l -1.6,-7.4 -1.1,-5.2 z"
   id="path14"
   inkscape:connector-curvature="0" />
		<path
   d="m 617.6,397.3 c 0,1.6 -0.2,3 -0.5,4.3 -0.3,1.3 -0.9,2.3 -1.6,3.2 -0.7,0.9 -1.6,1.5 -2.7,2 -1.1,0.5 -2.4,0.7 -3.9,0.7 -2.9,0 -5,-0.9 -6.5,-2.6 -1.4,-1.8 -2.1,-4.2 -2.1,-7.4 0,-1.6 0.2,-3 0.6,-4.2 0.4,-1.3 1,-2.3 1.7,-3.2 0.7,-0.9 1.7,-1.5 2.7,-2 1.1,-0.5 2.3,-0.7 3.6,-0.7 1.5,0 2.7,0.2 3.8,0.7 1.1,0.5 2,1.1 2.7,2 0.7,0.9 1.3,1.9 1.6,3.2 0.4,1.1 0.6,2.5 0.6,4 z m -4.4,0.1 c 0,-0.8 -0.1,-1.6 -0.2,-2.4 -0.1,-0.8 -0.3,-1.4 -0.7,-2 -0.4,-0.6 -0.7,-1 -1.3,-1.4 -0.5,-0.3 -1.2,-0.5 -2.1,-0.5 -0.7,0 -1.3,0.2 -1.9,0.5 -0.6,0.3 -1,0.8 -1.3,1.3 -0.4,0.6 -0.6,1.2 -0.8,2 -0.2,0.8 -0.3,1.5 -0.3,2.4 0,1 0.1,1.9 0.2,2.7 0.1,0.8 0.4,1.5 0.7,2 0.3,0.6 0.8,1 1.3,1.3 0.5,0.3 1.2,0.4 2,0.4 0.8,0 1.5,-0.2 2,-0.5 0.5,-0.3 1,-0.8 1.3,-1.4 0.3,-0.6 0.5,-1.2 0.7,-2 0.2,-0.8 0.4,-1.6 0.4,-2.4 z"
   id="path16"
   inkscape:connector-curvature="0" />
		<path
   d="m 633.6,398 c 0.6,0.3 1.1,0.7 1.3,1.2 0.3,0.5 0.5,1.1 0.6,1.8 l 1.4,5.6 c 0,0.1 0,0.2 0,0.4 0,0.2 -0.2,0.2 -0.4,0.2 h -2.9 c -0.2,0 -0.4,0 -0.6,-0.1 -0.2,0 -0.4,-0.2 -0.5,-0.5 l -1.2,-5 c -0.2,-0.9 -0.6,-1.5 -1.1,-1.9 -0.5,-0.4 -1.1,-0.5 -2,-0.5 h -2.7 v 7.4 c 0,0.3 0,0.4 -0.1,0.5 -0.1,0.1 -0.3,0.1 -0.5,0.1 h -3 c -0.2,0 -0.4,0 -0.5,-0.1 -0.1,-0.1 -0.2,-0.2 -0.2,-0.5 v -17.3 c 0,-0.6 0.1,-1 0.3,-1.3 0.2,-0.3 0.7,-0.4 1.3,-0.4 h 6.9 c 2,0 3.6,0.5 4.7,1.5 1.1,1 1.7,2.4 1.7,4.1 0,1 -0.2,1.8 -0.7,2.7 -0.4,0.8 -1.1,1.5 -1.9,1.9 z m -1.8,-4.5 c 0,-0.2 0,-0.5 -0.1,-0.8 -0.1,-0.3 -0.2,-0.5 -0.4,-0.7 -0.2,-0.2 -0.4,-0.4 -0.7,-0.5 -0.3,-0.1 -0.7,-0.2 -1.2,-0.2 h -3.8 v 4.5 h 3.7 c 0.8,0 1.4,-0.2 1.9,-0.6 0.5,-0.4 0.6,-1 0.6,-1.7 z"
   id="path18"
   inkscape:connector-curvature="0" />
		<path
   d="m 641.7,407.2 c -0.7,0 -1.1,-0.1 -1.3,-0.4 -0.2,-0.3 -0.3,-0.7 -0.3,-1.3 v -16.2 c 0,-0.6 0.1,-1 0.3,-1.3 0.2,-0.3 0.7,-0.4 1.3,-0.4 h 5.2 c 1.6,0 3,0.3 4.2,0.8 1.1,0.5 2.1,1.2 2.8,2.1 0.7,0.9 1.2,1.9 1.5,3.1 0.3,1.2 0.5,2.4 0.5,3.7 0,1.3 -0.1,2.5 -0.4,3.7 -0.3,1.2 -0.8,2.3 -1.4,3.2 -0.7,0.9 -1.6,1.6 -2.7,2.2 -1.1,0.6 -2.5,0.8 -4.1,0.8 z m 9.8,-9.9 c 0,-0.9 -0.1,-1.7 -0.2,-2.4 -0.2,-0.7 -0.4,-1.4 -0.8,-1.9 -0.4,-0.5 -0.9,-1 -1.6,-1.3 -0.7,-0.3 -1.5,-0.5 -2.5,-0.5 h -2.2 v 12.2 h 2.3 c 1,0 1.8,-0.2 2.4,-0.5 0.6,-0.3 1.2,-0.7 1.5,-1.3 0.4,-0.5 0.6,-1.2 0.8,-1.9 0.2,-0.7 0.3,-1.6 0.3,-2.4 z"
   id="path20"
   inkscape:connector-curvature="0" />
	</g>
	<g
   class="st1"
   id="g48"
   style="enable-background:new">
		<g
   id="job_converter_010_logo_general_01.svg">
			
				<sodipodi:namedview
   id="base"
   inkscape:window-y="-8"
   inkscape:window-x="-8"
   inkscape:window-height="838"
   inkscape:window-width="1600"
   inkscape:window-maximized="1"
   inkscape:current-layer="layer1"
   inkscape:pageshadow="2"
   inkscape:document-units="mm"
   inkscape:pageopacity="0.0"
   borderopacity="1.0"
   pagecolor="#ffffff"
   inkscape:cy="555.18622"
   inkscape:zoom="0.5082856"
   inkscape:cx="606.35665"
   showgrid="false"
   bordercolor="#666666">
				</sodipodi:namedview>
			<g
   id="layer1"
   inkscape:groupmode="layer"
   inkscape:label="Layer 1">
				<g
   id="g1006"
   inkscape:label="0">
				</g>
				<g
   id="g1090"
   inkscape:label="0">
				</g>
				<g
   id="g2712"
   inkscape:export-xdpi="100"
   inkscape:export-ydpi="100"
   sodipodi:role="line">
					<g
   id="g28">
						
							<path
   id="path2666"
   inkscape:connector-curvature="0"
   inkscape:export-xdpi="9.4075899"
   inkscape:export-ydpi="9.4075899"
   class="st2"
   d="m 487,370.9 0.2,3.1 0.1,3.1 v 3.1 l -0.2,3.1 -0.3,3.1 -0.4,3.1 -0.6,3 -0.7,3 -0.8,3 -0.9,2.9 -1.1,2.9 -1.3,2.7 -1.3,2.8 -1.5,2.7 -1.6,2.7 -1.7,2.6 -1.8,2.5 -1.9,2.4 -2,2.4 h 13.1 l 1.1,-0.1 1.1,-0.2 1.1,-0.3 1,-0.5 1,-0.6 0.9,-0.7 0.8,-0.8 0.7,-0.9 0.6,-1 0.5,-1 0.3,-1.1 0.2,-1.1 0.1,-1.1 v -36.9 l -0.1,-1.1 -0.2,-1.1 -0.3,-1 -0.4,-1 -0.5,-0.9 -0.6,-0.8 -0.7,-0.8 -0.8,-0.7 z m 0,0 z"
   style="fill:#0078d7" />
					</g>
					<g
   id="g31">
						
							<path
   id="path2668"
   inkscape:connector-curvature="0"
   inkscape:export-xdpi="9.4075899"
   inkscape:export-ydpi="9.4075899"
   class="st3"
   d="m 487,370.9 0.2,3.1 0.1,3.1 v 3.1 l -0.2,3.1 -0.3,3.1 -0.4,3.1 -0.6,3 -0.7,3 -0.8,3 -0.9,2.9 -1.1,2.9 -1.3,2.7 -1.3,2.8 -1.5,2.7 -1.6,2.7 -1.7,2.6 -1.8,2.5 -1.9,2.4 -2,2.4 h -22 1.3 l 1.2,-0.1 1.1,-0.2 1.1,-0.3 1,-0.3 0.9,-0.4 0.9,-0.5 0.8,-0.5 0.7,-0.6 0.7,-0.7 0.6,-0.7 0.6,-0.8 0.5,-0.8 0.5,-0.9 0.4,-0.9 0.4,-0.9 0.4,-1 0.3,-1 0.3,-1.1 0.3,-1.1 0.2,-1.1 0.2,-1.2 0.3,-2.4 0.3,-2.5 0.2,-2.5 0.3,-5.2 0.3,-5.2 0.2,-2.5 0.3,-2.5 0.3,-2.4 0.2,-1.2 0.2,-1.1 0.2,-1.1 0.3,-1.1 0.3,-1.1 0.4,-1 0.4,-0.9 0.5,-0.9 0.5,-0.9 0.5,-0.8 0.6,-0.8 0.6,-0.7 0.7,-0.7 0.7,-0.6 0.8,-0.5 0.9,-0.5 0.9,-0.4 1,-0.3 1.1,-0.3 1.1,-0.2 1.2,-0.1 h 1.3 3.7 1 l 1,0.2 0.9,0.2 0.9,0.4 z m 0,0 z"
   style="fill:#018fff" />
					</g>
					<g
   id="g34">
						
							<path
   id="path2670"
   inkscape:connector-curvature="0"
   inkscape:export-xdpi="9.4075899"
   inkscape:export-ydpi="9.4075899"
   class="st4"
   d="m 459.9,369.7 -1,0.1 -0.9,0.2 -0.9,0.2 -0.8,0.3 -0.8,0.3 -0.7,0.4 -0.7,0.4 -0.6,0.5 -0.6,0.5 -0.6,0.5 -0.5,0.6 -0.5,0.6 -0.5,0.6 -0.4,0.7 -0.4,0.7 -0.4,0.7 -0.4,0.8 -0.3,0.8 -0.6,1.7 -0.5,1.8 -0.4,1.8 -0.3,1.9 -0.2,2 -0.2,2 -0.2,2.1 -0.2,4.2 -0.2,4.2 -0.1,2.1 -0.2,2.1 -0.2,2 -0.2,2 -0.3,1.9 -0.4,1.9 -0.5,1.8 -0.6,1.7 -0.3,0.8 -0.3,0.8 -0.4,0.7 -0.4,0.7 -0.4,0.7 -0.5,0.6 -0.5,0.6 -0.5,0.6 0.6,0.8 0.6,0.7 0.7,0.6 0.8,0.5 0.9,0.4 0.5,0.2 0.5,0.1 0.5,0.1 0.5,0.1 0.6,0.1 h 0.6 1 l 1,-0.1 0.9,-0.1 0.9,-0.2 0.8,-0.2 0.8,-0.2 0.8,-0.3 0.7,-0.4 0.7,-0.4 0.6,-0.4 0.6,-0.5 0.6,-0.5 0.5,-0.5 0.5,-0.6 0.5,-0.6 0.4,-0.6 0.4,-0.6 0.4,-0.7 0.4,-0.7 0.3,-0.7 0.6,-1.5 0.5,-1.6 0.4,-1.7 0.3,-1.8 0.3,-1.9 0.2,-1.9 0.2,-2 0.2,-2 0.2,-4 0.2,-4.1 0.3,-4 0.2,-2 0.2,-1.9 0.3,-1.9 0.3,-1.8 0.4,-1.7 0.5,-1.6 0.6,-1.5 0.3,-0.7 0.4,-0.7 -0.5,-1.2 -0.6,-1.2 -0.7,-1 -0.4,-0.5 -0.4,-0.5 -0.4,-0.4 -0.5,-0.4 -0.5,-0.4 -0.5,-0.3 -0.6,-0.2 -0.6,-0.2 -0.6,-0.2 z m 0,0 z"
   style="fill:#ed5151" />
					</g>
					<g
   id="g37">
						
							<path
   id="path2672"
   inkscape:connector-curvature="0"
   inkscape:export-xdpi="9.4075899"
   inkscape:export-ydpi="9.4075899"
   class="st5"
   d="m 422.5,369.6 -1.1,0.2 -1.1,0.3 -1.1,0.4 -1,0.6 -0.9,0.7 -0.8,0.8 -0.7,0.9 -0.6,1 -0.5,1.1 -0.4,1.1 -0.2,1.1 -0.1,1.2 v 36.9 l 0.1,1.1 0.2,1.1 0.3,1.1 0.5,1 0.6,1 0.7,0.9 0.8,0.8 0.9,0.7 0.9,0.6 1,0.5 1.1,0.3 1.1,0.2 1.1,0.1 h 3.7 0.8 0.8 l 0.8,-0.1 0.7,-0.1 0.7,-0.1 0.7,-0.2 0.6,-0.2 0.6,-0.2 1.2,-0.5 1.1,-0.6 1,-0.7 0.9,-0.8 -2.1,-5.6 -2,-5.6 -1.8,-5.7 -1.7,-5.7 -1.6,-5.8 -1.4,-5.8 -1.3,-5.8 -1.2,-5.9 z m 0,0 z"
   style="fill:#fed55e" />
					</g>
					<g
   id="g40">
						
							<path
   id="path2674"
   inkscape:connector-curvature="0"
   inkscape:export-xdpi="9.4075899"
   inkscape:export-ydpi="9.4075899"
   class="st6"
   d="m 458.3,369.6 h -1.1 l -1.1,0.1 -1,0.1 -0.9,0.2 -0.9,0.2 -0.8,0.3 -0.8,0.4 -0.7,0.4 -0.7,0.4 -0.7,0.5 -0.6,0.5 -0.6,0.6 -0.5,0.6 -0.5,0.6 -0.5,0.7 -0.4,0.7 -0.4,0.8 -0.4,0.8 -0.3,0.8 -0.3,0.8 -0.5,1.8 -0.5,1.9 -0.4,1.9 -0.3,2 -0.2,2.1 -0.2,2.1 -0.3,4.3 -0.2,4.4 -0.3,4.3 -0.2,2.1 -0.2,2.1 -0.3,2 -0.4,1.9 -0.5,1.8 -0.5,1.8 -0.3,0.8 -0.3,0.8 -0.4,0.8 -0.4,0.7 -0.4,0.7 -0.5,0.7 -0.5,0.6 -0.6,0.6 -2.1,-5.6 -2,-5.6 -1.8,-5.7 -1.7,-5.7 -1.6,-5.8 -1.5,-5.8 -1.3,-5.8 -1.2,-5.9 -1.1,-5.9 h 35.9 z m 0,0 z"
   style="fill:#febd01" />
					</g>
					<g
   id="g43">
						
							<path
   id="path2676"
   inkscape:connector-curvature="0"
   inkscape:export-xdpi="9.4075899"
   inkscape:export-ydpi="9.4075899"
   class="st7"
   d="m 458.3,369.6 h 0.8 l 0.7,0.1 -1,0.1 -0.9,0.2 -0.9,0.2 -0.8,0.3 -0.8,0.3 -0.7,0.4 -0.7,0.4 -0.6,0.5 -0.6,0.5 -0.6,0.5 -0.5,0.6 -0.5,0.6 -0.5,0.6 -0.4,0.7 -0.4,0.7 -0.4,0.7 -0.4,0.8 -0.3,0.8 -0.6,1.7 -0.5,1.8 -0.4,1.8 -0.3,1.9 -0.2,2 -0.2,2 -0.2,2.1 -0.2,4.2 -0.2,4.2 -0.1,2.1 -0.2,2.1 -0.2,2 -0.2,2 -0.3,1.9 -0.4,1.9 -0.5,1.8 -0.6,1.7 -0.3,0.8 -0.3,0.8 -0.4,0.7 -0.4,0.7 -0.4,0.7 -0.5,0.6 -0.5,0.6 -0.5,0.6 -0.4,-0.7 -0.4,-0.7 -0.4,-0.8 -0.3,-0.8 0.4,-0.7 0.3,-0.7 0.6,-1.5 0.5,-1.6 0.4,-1.7 0.4,-1.8 0.3,-1.9 0.2,-1.9 0.2,-1.9 0.3,-4 0.2,-4.1 0.2,-4 0.1,-2 0.2,-2 0.2,-1.9 0.3,-1.9 0.4,-1.8 0.4,-1.7 0.5,-1.6 0.6,-1.5 0.3,-0.7 0.4,-0.7 0.4,-0.7 0.4,-0.7 0.4,-0.6 0.5,-0.6 0.5,-0.6 0.5,-0.5 0.6,-0.5 0.6,-0.5 0.6,-0.4 0.7,-0.4 0.7,-0.3 0.8,-0.3 0.8,-0.3 0.8,-0.2 0.9,-0.2 0.9,-0.1 1,-0.1 z m 0,0 z"
   style="fill:#df1818" />
					</g>
				</g>
			</g>
		</g>
	</g>
</g>
</svg>