<?xml version="1.0" encoding="UTF-8" standalone="no"?>
<svg
   xmlns:dc="http://purl.org/dc/elements/1.1/"
   xmlns:cc="http://creativecommons.org/ns#"
   xmlns:rdf="http://www.w3.org/1999/02/22-rdf-syntax-ns#"
   xmlns:svg="http://www.w3.org/2000/svg"
   xmlns="http://www.w3.org/2000/svg"
   xmlns:sodipodi="http://sodipodi.sourceforge.net/DTD/sodipodi-0.dtd"
   xmlns:inkscape="http://www.inkscape.org/namespaces/inkscape"
   height="250pt"
   viewBox="0 0 800.0002 250"
   width="800pt"
   version="1.1"
   id="svg6"
   sodipodi:docname="ruler.svg"
   inkscape:version="0.92.3 (2405546, 2018-03-11)">
  <metadata
     id="metadata12">
    <rdf:RDF>
      <cc:Work
         rdf:about="">
        <dc:format>image/svg+xml</dc:format>
        <dc:type
           rdf:resource="http://purl.org/dc/dcmitype/StillImage" />
        <dc:title></dc:title>
      </cc:Work>
    </rdf:RDF>
  </metadata>
  <defs
     id="defs10" />
  <sodipodi:namedview
     pagecolor="#ffffff"
     bordercolor="#666666"
     borderopacity="1"
     objecttolerance="10"
     gridtolerance="10"
     guidetolerance="10"
     inkscape:pageopacity="0"
     inkscape:pageshadow="2"
     inkscape:window-width="1366"
     inkscape:window-height="703"
     id="namedview8"
     showgrid="false"
     inkscape:zoom="1.3828125"
     inkscape:cx="739.09932"
     inkscape:cy="216.20201"
     inkscape:window-x="0"
     inkscape:window-y="0"
     inkscape:window-maximized="1"
     inkscape:current-layer="g824" />
  <rect
     style="opacity:1;fill:#ffdd55;fill-opacity:1;stroke:none;stroke-width:7.08661509;stroke-linecap:round;stroke-linejoin:round;stroke-miterlimit:4;stroke-dasharray:none;stroke-dashoffset:2.40377951;stroke-opacity:1;paint-order:fill markers stroke"
     id="rect826"
     width="568.40686"
     height="169.22037"
     x="112.81357"
     y="41.728825"
     rx="14.173202"
     ry="14.173202" />
  <g
     id="g824"
     transform="rotate(44.843667,486.74318,364.99641)"
     style="fill:#ff0000">
    <path
       id="path2"
       d="M 503.77958,93.983243 419.7001,9.3293198 C 408.04079,-2.409661 389.00574,-2.4744655 377.26676,9.1848561 L 259.03818,126.61115 c -2e-5,0.004 -2e-5,0.004 -0.004,0.004 l -88.27948,87.68043 c -0.004,0.004 -0.004,0.004 -0.004,0.004 L 38.337487,345.81809 c -0.0039,-2e-5 -0.0039,0.004 -0.0078,0.004 0,0 -0.0039,0.004 -0.0039,0.004 L 8.3648854,375.58341 c -11.7389808,11.65932 -11.8037853,30.69437 -0.1444637,42.43334 l 84.0794733,84.65393 c 5.831621,5.86755 13.501305,8.81945 21.184855,8.84561 7.68354,0.0262 15.37706,-2.87344 21.24849,-8.70115 l 45.72128,-45.411 c 3.91952,-3.89293 3.94108,-10.22494 0.0481,-14.14446 -3.89293,-3.91953 -10.22493,-3.94109 -14.14445,-0.0482 l -45.72127,45.41102 c -3.9117,3.88904 -10.25933,3.86743 -14.14445,-0.0482 L 22.413025,403.92046 c -3.889049,-3.91169 -3.867439,-10.25932 0.04815,-14.14445 l 22.870421,-22.71133 33.050964,33.27677 c 1.946465,1.95977 4.501732,2.94113 7.060311,2.94984 2.558579,0.009 5.124375,-0.95521 7.080232,-2.90169 3.919526,-3.89293 3.941084,-10.22493 0.04817,-14.14836 l -33.050965,-33.27678 29.9491,-29.74586 11.667109,11.74682 c 1.94647,1.95976 4.50172,2.94502 7.06029,2.95373 2.55859,0.009 5.1244,-0.95912 7.08416,-2.90558 3.91562,-3.89294 3.93718,-10.22493 0.0482,-14.14444 l -11.66711,-11.74683 29.94911,-29.74586 33.05096,33.27677 c 1.94646,1.95977 4.50172,2.94503 7.0642,2.95376 2.55858,0.009 5.12049,-0.95914 7.08025,-2.9056 3.91951,-3.88902 3.94108,-10.22493 0.0481,-14.14054 l -33.05095,-33.28069 29.94909,-29.74587 11.66712,11.74682 c 1.94646,1.95977 4.50171,2.94503 7.06029,2.95374 2.55858,0.009 5.12439,-0.95912 7.08025,-2.9056 3.91952,-3.89293 3.94108,-10.22492 0.0481,-14.14445 l -11.6632,-11.7468 29.9491,-29.74587 33.03538,33.26501 c 1.94646,1.95975 4.50562,2.94503 7.0642,2.95374 2.55858,0.009 5.12049,-0.95913 7.08025,-2.90559 3.91952,-3.89293 3.94108,-10.22492 0.0482,-14.14445 l -33.03928,-33.26502 29.94909,-29.74586 11.66711,11.74682 c 1.94647,1.95975 4.50172,2.94502 7.0603,2.95373 2.56249,0.009 5.12439,-0.95912 7.08416,-2.90558 3.91952,-3.89293 3.94108,-10.22492 0.0481,-14.14445 l -11.66712,-11.74683 29.94911,-29.74586 33.05096,33.27678 c 1.95037,1.95978 4.50563,2.94504 7.0642,2.95375 2.55859,0.009 5.1244,-0.95912 7.08025,-2.9056 3.91952,-3.89293 3.94108,-10.22492 0.0481,-14.14445 l -33.05096,-33.276773 29.9491,-29.745868 11.66711,11.746819 c 1.94646,1.959764 4.50172,2.945031 7.06029,2.953742 2.55859,0.0087 5.1244,-0.959122 7.08416,-2.905588 3.91561,-3.892942 3.93717,-10.224936 0.0482,-14.144449 l -11.66321,-11.7429 22.85083,-22.695773 c 3.91169,-3.885144 10.25931,-3.863533 14.14445,0.04815 l 84.07947,84.653926 c 3.88515,3.91168 3.86354,10.2593 -0.0482,14.14445 L 223.12864,386.82635 c -3.91953,3.89293 -3.94109,10.22492 -0.0482,14.14445 3.89293,3.91952 10.22492,3.94108 14.14445,0.0482 L 503.63511,136.41659 c 11.73898,-11.65932 11.80379,-30.69437 0.14447,-42.433347 z m 0,0"
       inkscape:connector-curvature="0"
       style="fill:#ff0000" />
    <path
       id="path4"
       d="m 202.42187,412.35937 c -2.64062,0 -5.21875,1.07032 -7.07812,2.92969 -1.86328,1.85938 -2.92188,4.44141 -2.92188,7.07031 0,2.63282 1.0586,5.21094 2.92188,7.07032 1.85937,1.86328 4.4375,2.92968 7.07812,2.92968 2.63282,0 5.21094,-1.0664 7.07032,-2.92968 1.86328,-1.85938 2.93359,-4.4375 2.93359,-7.07032 0,-2.6289 -1.07031,-5.21093 -2.93359,-7.07031 -1.85938,-1.85937 -4.4375,-2.92969 -7.07032,-2.92969 z m 0,0"
       inkscape:connector-curvature="0"
       style="fill:#ff0000" />
  </g>
</svg>
